<?xml version="1.0" encoding="utf-8"?>
<svg id="master-artboard" viewBox="0 0 22 22" version="1.1" xmlns="http://www.w3.org/2000/svg" x="0px" y="0px" style="enable-background:new 0 0 1400 980;" width="22px" height="22px"><rect id="ee-background" x="0" y="0" width="22" height="22" style="fill: white; fill-opacity: 0; pointer-events: none;"/><g transform="matrix(0.25, 0, 0, 0.25, -1.1930770874023438, -1.2425613403320312)"><path d="M48,8C25.944,8,8,25.944,8,48c0,22.057,17.944,40,40,40c22.057,0,40-17.943,40-40C88,25.944,70.057,8,48,8z M64.284,60.348  l-3.937,3.937L48,51.937L35.651,64.284l-3.935-3.937L44.064,48L31.716,35.653l3.935-3.938L48,44.064l12.348-12.348l3.937,3.937  L51.937,48L64.284,60.348z" style="fill: rgb(255, 255, 255);"/></g></svg>